# xmcd
#
# Track frame offsets:
#	150
#	10865
#	22674
#	35731
#	49428
#	67011
#	80779
#	93253
#	104775
#	116312
#	133181
#	145702
#	159456
#	181327
#
# Disc length: 2453 seconds
#
# Revision: 0
# Processed by: cddbd v1.5PL3 Copyright (c) Steve Scherf et al.
# Submitted via: audiograbber 1.82.02
#
DISCID=be09930e
DTITLE=The New Section - The Very Best Of
DYEAR=2002
DGENRE=Bluegrass
TTITLE0=Kridla
TTITLE1=Porednej flam
TTITLE2=Reguiem
TTITLE3=Sam si varit a sam si prat
TTITLE4=Tulaku kral
TTITLE5=Jedna z prava, druha z prava
TTITLE6=Opustim Te lip
TTITLE7=V baru u Sama
TTITLE8=Az se k ranu rozedni
TTITLE9=Blaznivej sen
TTITLE10=Hrat a pit
TTITLE11=Vecer vanocni
TTITLE12=Special bonus: Cadillac in Model "A"
TTITLE13=Datov· Ë·st
EXTD=
EXTT0=
EXTT1=
EXTT2=
EXTT3=
EXTT4=
EXTT5=
EXTT6=
EXTT7=
EXTT8=
EXTT9=
EXTT10=
EXTT11=
EXTT12=
EXTT13=
PLAYORDER=
